<?xml version="1.0" standalone="no"?>
<!DOCTYPE svg PUBLIC "-//W3C//DTD SVG 20010904//EN"
 "http://www.w3.org/TR/2001/REC-SVG-20010904/DTD/svg10.dtd">
<svg version="1.0" xmlns="http://www.w3.org/2000/svg"
 width="512.000000pt" height="512.000000pt" viewBox="0 0 512.000000 512.000000"
 preserveAspectRatio="xMidYMid meet">

<g transform="translate(0.000000,512.000000) scale(0.100000,-0.100000)"
fill="#000000" stroke="none">
<path d="M2280 4946 c-551 -70 -1026 -302 -1415 -691 -369 -368 -599 -823
-682 -1346 -25 -160 -25 -538 0 -698 83 -523 312 -977 682 -1346 369 -370 823
-599 1346 -682 161 -25 538 -25 699 0 522 83 976 313 1345 682 370 369 599
821 682 1346 28 175 25 560 -5 729 -93 524 -313 952 -677 1315 -366 367 -821
599 -1336 680 -141 23 -499 29 -639 11z m103 -1057 c12 -7 52 -41 90 -75 59
-56 72 -64 106 -64 41 0 57 10 148 92 35 31 50 38 84 38 47 0 66 -17 141 -122
39 -56 53 -68 83 -74 32 -6 46 0 120 45 129 79 173 70 226 -47 41 -91 62 -112
114 -112 35 0 51 8 108 55 57 47 72 55 108 55 35 0 48 -6 80 -39 23 -22 39
-48 39 -62 0 -24 -842 -1774 -865 -1798 -11 -11 -17 -12 -28 -3 -12 10 24 133
224 774 132 419 239 773 239 787 0 50 -53 78 -94 48 -12 -9 -99 -285 -277
-877 -142 -476 -263 -872 -268 -880 -12 -22 -36 -18 -39 7 -2 12 51 420 118
907 91 673 118 891 110 906 -12 23 -61 27 -78 8 -6 -7 -70 -418 -142 -913 -87
-587 -137 -905 -146 -915 -10 -10 -17 -11 -25 -3 -7 7 -15 304 -24 924 -7 503
-14 915 -14 916 -1 1 -8 9 -17 17 -21 22 -57 20 -78 -3 -16 -18 -17 -60 -12
-613 4 -326 9 -729 12 -896 5 -273 4 -303 -11 -308 -9 -4 -21 -2 -26 3 -5 5
-77 392 -159 859 -83 467 -153 859 -155 872 -3 12 -16 28 -30 34 -31 14 -75
-12 -75 -45 0 -12 74 -418 164 -902 141 -757 162 -882 150 -895 -9 -9 -17 -11
-23 -5 -6 6 -138 372 -294 815 -157 443 -288 813 -292 823 -15 37 -82 35 -103
-3 -13 -24 8 -87 327 -990 187 -531 341 -980 341 -999 0 -42 -34 -103 -69
-124 -54 -32 -512 -197 -547 -197 -41 0 -80 18 -110 52 -18 20 -969 2304 -997
2395 -14 46 5 104 46 140 50 43 520 233 579 233 64 0 106 -31 142 -108 17 -34
33 -62 36 -62 3 0 16 21 29 46 24 43 63 74 96 74 8 0 54 -16 102 -35 48 -19
99 -35 113 -35 42 0 71 29 107 106 34 74 66 104 110 104 10 0 50 -19 88 -41
105 -62 128 -70 163 -58 17 6 58 42 92 82 84 97 113 112 163 86z m2007 -219
c200 -94 230 -114 255 -167 42 -87 69 -24 -550 -1321 -331 -695 -579 -1203
-594 -1218 -35 -35 -81 -54 -133 -54 -60 0 -408 164 -455 214 -37 40 -57 104
-48 149 10 47 1132 2398 1158 2426 12 13 40 32 62 43 66 31 111 21 305 -72z"/>
</g>
</svg>
